<svg width="192" height="35" viewBox="0 0 192 35" fill="none" xmlns="http://www.w3.org/2000/svg">
<path d="M12.0153 16.3262C11.7276 16.3058 10.8439 16.2956 9.36429 16.2956C7.88465 16.2956 7.02153 16.3364 6.77493 16.418C5.68572 19.9703 5.06922 22.5324 4.92537 24.1044C4.92537 24.1248 4.66849 24.135 4.15473 24.135C3.66152 24.135 3.14775 24.1044 2.61344 24.0431C1.48317 23.8798 0.91803 23.7369 0.91803 23.6144C0.91803 22.7978 1.64757 20.4194 3.10665 16.4793C2.8395 16.2547 2.53124 15.7954 2.18188 15.1013C1.83253 14.3868 1.65785 13.7947 1.65785 13.3251C1.65785 13.3047 2.51069 13.2639 4.21638 13.2027C5.9015 8.34383 6.8571 5.78174 7.08318 5.51634C7.16536 5.45509 7.53527 5.36322 8.19291 5.24073C8.85051 5.09782 9.27181 5.02637 9.45676 5.02637L9.39511 4.62828C9.35398 4.34247 9.30263 4.03624 9.24098 3.70959C9.19985 3.36253 9.17933 3.13797 9.17933 3.03589C9.17933 2.97465 9.35398 2.85216 9.70337 2.66842C10.7103 2.17845 11.7481 1.93347 12.8168 1.93347C13.0222 3.13797 13.2894 4.67931 13.6182 6.55751C13.9676 8.41531 14.6355 11.2632 15.6219 15.1013C16.6083 18.9393 17.5536 21.6137 18.4579 23.1244L18.6736 23.4919C18.6736 23.594 18.4784 23.7675 18.088 24.0125C17.6975 24.2575 17.1837 24.4923 16.5467 24.7168C15.9096 24.9414 15.3239 25.0537 14.7896 25.0537C14.6047 25.0537 14.1525 23.9002 13.4333 21.5933C12.7345 19.266 12.2619 17.5103 12.0153 16.3262ZM11.2755 13.172C10.5767 10.2322 10.1966 8.58881 10.1349 8.24177C10.0733 7.89472 10.0219 7.72118 9.9808 7.72118C9.93967 7.72118 9.88832 7.76199 9.82667 7.84367C9.64172 8.19071 9.29233 9.02776 8.7786 10.3547C8.28539 11.6817 7.96683 12.6004 7.823 13.1108C10.1041 13.1108 11.2549 13.1312 11.2755 13.172ZM24.4137 16.2956L24.4445 17.4286V19.7559C24.4445 21.9403 24.4034 23.0734 24.3212 23.1551C24.0541 23.4205 23.5917 23.6246 22.9341 23.7675C22.2765 23.9104 21.7319 23.9819 21.3003 23.9819C20.8893 23.9819 20.6838 23.9513 20.6838 23.89C20.8277 22.9713 20.8996 21.4606 20.8996 19.3578L20.8071 12.4677C20.8071 11.202 20.8585 10.518 20.9612 10.416C21.1873 10.1914 21.5777 9.99746 22.1326 9.83415C22.6875 9.65041 23.2012 9.55855 23.6739 9.55855C24.1671 9.55855 24.4137 9.6096 24.4137 9.71166C24.352 10.2016 24.3212 10.6916 24.3212 11.1816C24.3212 11.6715 24.352 11.9165 24.4137 11.9165L24.5062 11.8553C24.609 11.7123 24.7631 11.5388 24.9686 11.3347C25.1741 11.1101 25.6056 10.8243 26.2632 10.4772C26.9414 10.1098 27.5785 9.92602 28.1744 9.92602C28.7909 9.92602 29.3047 10.0383 29.7157 10.2629C30.1473 10.467 30.4967 10.7222 30.7638 11.0284C31.031 11.3347 31.257 11.7736 31.442 12.3452C31.6475 12.9169 31.8016 13.4476 31.9043 13.9376C32.0071 14.4276 32.0893 15.0808 32.1509 15.8975C32.2126 17.0203 32.2434 18.4493 32.2434 20.1847L32.1509 23.7675C32.1509 23.9104 31.8119 24.0431 31.1337 24.1656C30.4555 24.3085 29.911 24.38 29.4999 24.38L28.4827 24.2269C28.6882 22.3895 28.7909 20.6134 28.7909 18.8985C28.7909 17.1632 28.6779 15.8668 28.4519 15.0094C28.2258 14.1315 27.7737 13.6926 27.0955 13.6926C26.4174 13.6926 25.8625 13.8764 25.4309 14.2438C25.0199 14.6113 24.7528 14.9788 24.6295 15.3463L24.4137 15.8668V16.2956ZM37.2016 4.90388C37.777 4.90388 38.2394 5.08762 38.5887 5.45509C38.9381 5.82257 39.1127 6.30234 39.1127 6.89436C39.1127 7.48639 38.8764 7.99678 38.4038 8.4255C37.9516 8.83379 37.4379 9.03796 36.8625 9.03796C36.3076 9.03796 35.8555 8.86441 35.5061 8.51737C35.1773 8.1499 35.0129 7.67013 35.0129 7.0781C35.0129 6.48607 35.239 5.97568 35.6911 5.54696C36.1432 5.11824 36.6467 4.90388 37.2016 4.90388ZM38.7737 12.529L38.712 17.4898C38.712 19.0822 38.7531 20.2561 38.8353 21.0115C38.9381 21.7464 39.2052 22.4405 39.6368 23.0938C39.6368 23.298 39.2155 23.6246 38.3729 24.0737C37.5304 24.5229 36.8111 24.7474 36.2151 24.7474C36.0302 24.7474 35.8452 24.4412 35.6603 23.8288C35.4753 23.2163 35.352 22.6345 35.2904 22.0833C35.2493 21.5321 35.2287 19.6743 35.2287 16.5099C35.2287 13.3456 35.3006 11.6205 35.4445 11.3347C35.9171 10.9672 36.7494 10.7835 37.9414 10.7835C38.414 10.7835 38.7018 10.8447 38.8045 10.9672L38.7737 12.529ZM42.0019 19.3885L41.9094 12.1921C41.9094 10.8855 41.9608 10.1812 42.0636 10.0791C42.3102 9.85458 42.6904 9.65041 43.2041 9.46668C43.7179 9.26251 44.2111 9.16045 44.6837 9.16045C45.1564 9.16045 45.3929 9.20126 45.3929 9.28294C45.3106 10.1812 45.2696 10.8651 45.2696 11.3347C45.2696 11.8042 45.2899 12.039 45.3313 12.039C45.3722 12.039 45.4339 11.9982 45.5162 11.9165C45.5981 11.8144 45.7421 11.6715 45.9478 11.4878C46.1737 11.2836 46.5744 11.0182 47.15 10.6916C47.7458 10.3445 48.2905 10.171 48.7837 10.171C50.1194 10.171 51.1265 10.763 51.8047 11.9471C52.976 10.3139 54.2707 9.4973 55.6887 9.4973C56.9627 9.4973 57.8773 10.0383 58.4322 11.1203C59.0073 12.3248 59.3464 13.5293 59.4494 14.7338C59.5727 16.4895 59.6344 18.3065 59.6344 20.1847L59.5111 23.7675C59.5111 23.9104 59.172 24.0431 58.4938 24.1656C57.8157 24.3085 57.2709 24.38 56.8601 24.38L55.8736 24.2269C56.0996 22.2058 56.2127 20.5726 56.2127 19.3272C56.2127 18.0819 56.192 17.1938 56.1511 16.663C56.1304 16.1118 56.0586 15.5708 55.9353 15.04C55.812 14.4888 55.6165 14.1009 55.3496 13.8764C55.103 13.6314 54.7842 13.5089 54.394 13.5089C54.0034 13.5089 53.6542 13.6212 53.3459 13.8457C53.0377 14.0499 52.8113 14.254 52.6678 14.4582C52.5445 14.6624 52.4828 14.795 52.4828 14.8563C52.5445 15.5096 52.5753 17.0203 52.5753 19.3885L52.452 21.8077C52.452 21.971 52.123 22.1139 51.4656 22.2364C50.8077 22.3589 50.2735 22.4201 49.8626 22.4201L48.8762 22.267C49.0612 20.6134 49.1536 19.072 49.1536 17.643C49.1536 16.1935 49.0713 15.1829 48.907 14.6113C48.763 14.0193 48.3623 13.7232 47.7048 13.7232C47.0469 13.7232 46.4921 14.0499 46.0403 14.7032C45.588 15.3564 45.3621 15.8566 45.3621 16.2037V16.8468L45.3929 20.0928C45.3929 22.0935 45.3515 23.1449 45.2696 23.2469C44.7557 23.7369 43.6768 23.9819 42.0327 23.9819C41.8683 23.9819 41.7861 23.9513 41.7861 23.89C41.93 23.0121 42.0019 21.5116 42.0019 19.3885ZM73.4117 16.3568C73.4117 18.9087 73.4425 20.399 73.5042 20.8277C73.6684 21.9506 74.0176 22.757 74.5523 23.2469C74.5523 23.4715 74.1409 23.8083 73.3192 24.2575C72.5178 24.7066 71.7881 24.9312 71.1306 24.9312C70.9456 24.9312 70.7501 24.6556 70.5449 24.1044C70.3393 23.5736 70.216 23.1755 70.175 22.9101C70.1543 22.6447 70.1336 22.512 70.1134 22.512L70.0209 22.5732C68.9314 23.4307 67.6574 23.8594 66.1985 23.8594C64.7391 23.8594 63.6091 23.5123 62.8077 22.8182C62.0265 22.1037 61.6363 21.1748 61.6363 20.0315C61.6363 18.8883 61.8829 17.9288 62.3761 17.153C62.8896 16.3568 63.4858 15.7545 64.164 15.3463C64.8422 14.938 65.5921 14.6113 66.4143 14.3663C67.6676 13.958 68.654 13.7539 69.3735 13.7539L69.4352 13.7232C69.4352 12.7229 68.1608 12.2227 65.6128 12.2227C64.6057 12.2227 63.8557 12.2635 63.3625 12.3452H63.3317C63.3317 11.9369 63.455 11.4265 63.7016 10.8141C63.9685 10.2016 64.1843 9.80353 64.349 9.61979C64.5339 9.43605 65.2737 9.34419 66.5684 9.34419C68.9111 9.34419 70.6374 9.79333 71.7471 10.6916C72.8568 11.5695 73.4117 12.9372 73.4117 14.795V16.3568ZM69.9901 18.3167V17.153C69.9901 16.7038 69.9795 16.4793 69.9592 16.4793C68.5822 16.4793 67.3901 16.8366 66.3834 17.5511C65.7462 18.0002 65.4278 18.5616 65.4278 19.2353C65.4278 19.6641 65.582 20.0213 65.8902 20.3071C66.1985 20.5929 66.6609 20.7359 67.2774 20.7359C67.9142 20.7359 68.5205 20.5521 69.0961 20.1847C69.6919 19.8172 69.9901 19.1945 69.9901 18.3167ZM76.5555 18.8373L76.6788 7.7518C76.6788 6.13899 76.6581 5.04679 76.6171 4.47516C76.5757 3.90354 76.5555 3.59731 76.5555 3.55648C76.5555 3.35233 76.8946 3.11755 77.5727 2.85216C78.2711 2.58676 78.8877 2.45406 79.4223 2.45406C79.9564 2.45406 80.2237 2.49489 80.2237 2.57655C80.1207 3.33191 80.0696 5.98589 80.0696 10.5385L80.008 18.0411C80.008 19.4497 80.0282 20.3173 80.0696 20.644C80.1722 21.5422 80.4703 22.3589 80.9636 23.0938C80.9636 23.298 80.5421 23.6246 79.6997 24.0737C78.8568 24.5229 78.1377 24.7474 77.5419 24.7474C77.3772 24.7474 77.1922 24.4412 76.987 23.8288C76.7814 23.2163 76.6581 22.6855 76.6171 22.2364C76.5757 21.7872 76.5555 20.6542 76.5555 18.8373ZM90.0523 22.5732L90.3914 8.27239C90.3914 6.82292 90.3403 6.02672 90.2372 5.88381C90.1346 5.72049 89.9497 5.3326 89.6824 4.72015C89.4155 4.08727 89.2816 3.67897 89.2816 3.49523C89.2816 3.41357 89.4873 3.30129 89.8982 3.15838C91.0079 2.75008 91.9842 2.54593 92.8266 2.54593C93.6897 2.54593 94.142 2.57655 94.1829 2.6378C94.2243 2.67862 94.2446 3.07672 94.2446 3.83208C94.2446 4.56703 94.1935 6.46564 94.0905 9.52792C94.0905 9.65041 94.1112 9.71166 94.1521 9.71166C94.1935 9.71166 94.2446 9.67084 94.3062 9.58917C95.4574 8.07846 96.8445 6.44521 98.4677 4.68952C100.091 2.9134 101.068 2.02534 101.396 2.02534C101.746 2.02534 102.187 2.13762 102.722 2.36219C103.256 2.58676 103.698 2.83174 104.047 3.09714C104.417 3.34212 104.602 3.50544 104.602 3.5871V3.61772C103.801 4.1281 102.907 4.83243 101.92 5.7307C100.934 6.62895 100.132 7.41495 99.5158 8.08865C98.8993 8.76235 98.591 9.15026 98.591 9.25232C98.591 10.0077 99.4233 12.2125 101.088 15.8668C102.773 19.5008 104.15 21.8587 105.219 22.9407C105.239 22.9611 105.188 23.0326 105.064 23.1551C104.962 23.2571 104.787 23.3796 104.54 23.5225C104.294 23.6858 104.016 23.839 103.708 23.9819C102.989 24.3494 102.228 24.5331 101.427 24.5331C100.687 23.7981 99.8654 22.4303 98.9609 20.4296C98.0568 18.4085 97.3069 16.5814 96.7106 14.9482C96.1355 13.315 95.8273 12.4983 95.7859 12.4983C95.6833 12.4983 95.3543 12.9271 94.7994 13.7845C94.2653 14.6215 93.998 15.1217 93.998 15.285V17.2755C93.998 20.7869 94.0596 22.8386 94.1829 23.4307C94.2036 23.4919 94.0905 23.5838 93.8438 23.7063C93.1454 24.0533 92.2616 24.2269 91.1928 24.2269L90.1448 24.0737C90.0831 24.0125 90.0523 23.5123 90.0523 22.5732ZM108.998 4.90388C109.573 4.90388 110.036 5.08762 110.385 5.45509C110.734 5.82257 110.909 6.30234 110.909 6.89436C110.909 7.48639 110.672 7.99678 110.2 8.4255C109.748 8.83379 109.234 9.03796 108.659 9.03796C108.104 9.03796 107.652 8.86441 107.302 8.51737C106.973 8.1499 106.809 7.67013 106.809 7.0781C106.809 6.48607 107.035 5.97568 107.487 5.54696C107.94 5.11824 108.443 4.90388 108.998 4.90388ZM110.57 12.529L110.508 17.4898C110.508 19.0822 110.549 20.2561 110.632 21.0115C110.734 21.7464 111.001 22.4405 111.433 23.0938C111.433 23.298 111.012 23.6246 110.169 24.0737C109.327 24.5229 108.607 24.7474 108.011 24.7474C107.826 24.7474 107.641 24.4412 107.456 23.8288C107.272 23.2163 107.148 22.6345 107.087 22.0833C107.046 21.5321 107.025 19.6743 107.025 16.5099C107.025 13.3456 107.097 11.6205 107.241 11.3347C107.713 10.9672 108.545 10.7835 109.738 10.7835C110.21 10.7835 110.498 10.8447 110.601 10.9672L110.57 12.529ZM117.312 16.2956L117.343 17.4286V19.7559C117.343 21.9403 117.302 23.0734 117.22 23.1551C116.953 23.4205 116.49 23.6246 115.833 23.7675C115.175 23.9104 114.63 23.9819 114.199 23.9819C113.788 23.9819 113.582 23.9513 113.582 23.89C113.726 22.9713 113.798 21.4606 113.798 19.3578L113.706 12.4677C113.706 11.202 113.757 10.518 113.86 10.416C114.086 10.1914 114.476 9.99746 115.031 9.83415C115.586 9.65041 116.1 9.55855 116.573 9.55855C117.066 9.55855 117.312 9.6096 117.312 9.71166C117.251 10.2016 117.22 10.6916 117.22 11.1816C117.22 11.6715 117.251 11.9165 117.312 11.9165L117.405 11.8553C117.507 11.7123 117.662 11.5388 117.867 11.3347C118.072 11.1101 118.504 10.8243 119.162 10.4772C119.84 10.1098 120.477 9.92602 121.073 9.92602C121.69 9.92602 122.203 10.0383 122.614 10.2629C123.046 10.467 123.395 10.7222 123.662 11.0284C123.929 11.3347 124.156 11.7736 124.341 12.3452C124.546 12.9169 124.7 13.4476 124.803 13.9376C124.906 14.4276 124.988 15.0808 125.05 15.8975C125.111 17.0203 125.142 18.4493 125.142 20.1847L125.05 23.7675C125.05 23.9104 124.71 24.0431 124.032 24.1656C123.354 24.3085 122.809 24.38 122.399 24.38L121.381 24.2269C121.587 22.3895 121.69 20.6134 121.69 18.8985C121.69 17.1632 121.576 15.8668 121.35 15.0094C121.124 14.1315 120.672 13.6926 119.994 13.6926C119.316 13.6926 118.761 13.8764 118.33 14.2438C117.918 14.6113 117.651 14.9788 117.528 15.3463L117.312 15.8668V16.2956ZM139.194 15.5912L139.255 22.8488C139.255 24.4412 139.04 25.8499 138.608 27.0748C138.176 28.3201 137.652 29.2796 137.036 29.9533C136.419 30.6475 135.71 31.2089 134.909 31.6376C133.614 32.3521 132.309 32.7094 130.994 32.7094C130.932 32.7094 130.809 32.5563 130.624 32.25C130.439 31.9438 130.264 31.5253 130.1 30.9945C129.935 30.4637 129.854 29.9738 129.854 29.5246H130.439C130.85 29.5246 131.241 29.4838 131.611 29.4021C132.001 29.3409 132.474 29.1469 133.029 28.8203C133.583 28.4936 134.056 28.0649 134.447 27.5341C134.837 27.0033 135.176 26.2173 135.464 25.1762C135.751 24.135 135.895 22.9203 135.895 21.5321C135.895 21.4504 135.885 21.4096 135.865 21.4096L135.772 21.5014C134.909 22.8284 133.563 23.4919 131.734 23.4919C130.357 23.4919 129.257 22.9509 128.436 21.8689C127.613 20.7869 127.203 19.5722 127.203 18.2248C127.203 15.775 127.993 13.7539 129.576 12.1615C131.158 10.5691 133.429 9.7729 136.389 9.7729C137.108 9.7729 137.467 9.82396 137.467 9.92602C137.529 10.2731 137.56 10.6508 137.56 11.0591L137.529 11.5184H137.868C138.526 11.5184 138.967 11.5796 139.194 11.7021V15.5912ZM135.834 13.0189L135.186 12.9271C133.871 12.9271 132.823 13.3558 132.042 14.2132C131.282 15.0502 130.902 16.1016 130.902 17.3674C130.902 18.0002 131.087 18.5515 131.456 19.021C131.847 19.4905 132.401 19.7253 133.121 19.7253C133.861 19.7253 134.477 19.4395 134.971 18.8679C135.464 18.2962 135.71 17.8369 135.71 17.4898C135.71 15.1625 135.751 13.6722 135.834 13.0189ZM149.736 10.0485L149.674 5.51634C149.674 4.25059 149.705 3.5871 149.767 3.52586C150.014 3.28087 150.414 3.0461 150.969 2.82153C151.545 2.57655 152.089 2.45406 152.603 2.45406C153.117 2.45406 153.374 2.49489 153.374 2.57655C153.209 5.96547 153.127 9.56874 153.127 13.3864C153.127 17.204 153.189 19.4803 153.312 20.2153C153.456 21.3177 153.795 22.1343 154.329 22.6651C154.329 22.8693 153.898 23.1857 153.034 23.6144C152.192 24.0636 151.473 24.2881 150.877 24.2881C150.815 24.2881 150.723 24.2064 150.599 24.0431C150.209 23.5327 149.973 22.8386 149.89 21.9608C149.89 21.8995 149.87 21.8689 149.829 21.8689L149.736 21.9302C148.873 23.1551 147.589 23.7675 145.883 23.7675C144.506 23.7675 143.417 23.2265 142.615 22.1445C141.814 21.0625 141.413 19.8478 141.413 18.5004C141.413 16.1935 142.133 14.2336 143.571 12.6208C145.01 10.9876 147.065 10.1302 149.736 10.0485ZM149.798 13.2639C149.798 13.2231 149.685 13.2027 149.459 13.2027H149.335C148.02 13.2027 146.982 13.6212 146.222 14.4582C145.482 15.2952 145.112 16.3568 145.112 17.643C145.112 18.3983 145.287 19.021 145.636 19.511C146.006 19.9805 146.551 20.2153 147.27 20.2153C148.01 20.2153 148.596 19.8989 149.027 19.266C149.479 18.6331 149.705 18.1329 149.705 17.7655C149.705 15.4994 149.736 13.9988 149.798 13.2639ZM169.415 16.8161C169.415 18.7556 168.819 20.4398 167.627 21.8689C166.456 23.2776 164.853 23.9819 162.818 23.9819C160.804 23.9819 159.222 23.3592 158.071 22.1139C156.92 20.8685 156.345 19.2558 156.345 17.2755C156.345 15.2748 157.054 13.5089 158.472 11.9777C159.91 10.4262 161.842 9.65041 164.267 9.65041C165.253 9.69123 165.787 9.75247 165.87 9.83415C165.952 9.91583 165.993 10.1098 165.993 10.416C165.993 10.7222 165.962 11.0591 165.901 11.4265C166.209 11.4265 166.599 11.6103 167.072 11.9777C167.565 12.3248 167.966 12.6821 168.274 13.0495C168.582 13.417 168.849 13.9376 169.076 14.6113C169.302 15.2646 169.415 15.9995 169.415 16.8161ZM164.914 14.6726C164.441 14.3663 163.979 14.2132 163.527 14.2132H163.28C163.239 14.1315 163.219 13.958 163.219 13.6926C163.219 13.4272 163.25 13.172 163.311 12.9271C162.468 12.9271 161.678 13.3047 160.938 14.0601C160.218 14.8155 159.859 15.8668 159.859 17.2142C159.859 18.8066 160.372 19.909 161.4 20.5215C161.79 20.7665 162.325 20.889 163.003 20.889C163.701 20.889 164.349 20.5726 164.945 19.9397C165.562 19.3068 165.87 18.3677 165.87 17.1224C165.87 15.877 165.551 15.0605 164.914 14.6726ZM172.108 19.3885L172.016 12.1921C172.016 10.8855 172.067 10.1812 172.17 10.0791C172.416 9.85458 172.796 9.65041 173.31 9.46668C173.824 9.26251 174.317 9.16045 174.79 9.16045C175.262 9.16045 175.499 9.20126 175.499 9.28294C175.417 10.1812 175.376 10.8651 175.376 11.3347C175.376 11.8042 175.396 12.039 175.437 12.039C175.478 12.039 175.54 11.9982 175.622 11.9165C175.705 11.8144 175.848 11.6715 176.054 11.4878C176.28 11.2836 176.68 11.0182 177.256 10.6916C177.852 10.3445 178.397 10.171 178.89 10.171C180.225 10.171 181.232 10.763 181.911 11.9471C183.082 10.3139 184.377 9.4973 185.795 9.4973C187.069 9.4973 187.983 10.0383 188.538 11.1203C189.114 12.3248 189.453 13.5293 189.555 14.7338C189.679 16.4895 189.74 18.3065 189.74 20.1847L189.617 23.7675C189.617 23.9104 189.278 24.0431 188.6 24.1656C187.922 24.3085 187.377 24.38 186.966 24.38L185.98 24.2269C186.206 22.2058 186.319 20.5726 186.319 19.3272C186.319 18.0819 186.298 17.1938 186.257 16.663C186.236 16.1118 186.165 15.5708 186.041 15.04C185.918 14.4888 185.723 14.1009 185.456 13.8764C185.209 13.6314 184.891 13.5089 184.5 13.5089C184.109 13.5089 183.76 13.6212 183.452 13.8457C183.144 14.0499 182.918 14.254 182.774 14.4582C182.65 14.6624 182.589 14.795 182.589 14.8563C182.65 15.5096 182.681 17.0203 182.681 19.3885L182.558 21.8077C182.558 21.971 182.229 22.1139 181.572 22.2364C180.914 22.3589 180.379 22.4201 179.969 22.4201L178.982 22.267C179.167 20.6134 179.26 19.072 179.26 17.643C179.26 16.1935 179.177 15.1829 179.013 14.6113C178.869 14.0193 178.468 13.7232 177.811 13.7232C177.153 13.7232 176.598 14.0499 176.146 14.7032C175.694 15.3564 175.468 15.8566 175.468 16.2037V16.8468L175.499 20.0928C175.499 22.0935 175.458 23.1449 175.376 23.2469C174.862 23.7369 173.783 23.9819 172.139 23.9819C171.975 23.9819 171.892 23.9513 171.892 23.89C172.036 23.0121 172.108 21.5116 172.108 19.3885Z" fill="#009757"/>
</svg>
